<mxfile modified="2020-01-10T13:47:17.816Z" host="www.draw.io" agent="Mozilla/5.0 (Windows NT 10.0; Win64; x64) AppleWebKit/537.36 (KHTML, like Gecko) Chrome/79.0.3945.88 Safari/537.36" etag="Zd3194PGxwcMVuI_wZ4g" version="12.5.1" type="github">
  <diagram name="Page-1" id="97a40813-6b03-0c74-37c1-0168de264b11">
    <mxGraphModel dx="700" dy="576" grid="1" gridSize="10" guides="1" tooltips="1" connect="1" arrows="1" fold="1" page="1" pageScale="1" pageWidth="1000" pageHeight="600" background="#ffffff" math="0" shadow="0">
      <root>
        <mxCell id="0"/>
        <mxCell id="1" parent="0"/>
        <UserObject label="&lt;a href=&quot;babylonian-programming.md&quot;&gt;Babylonian Programming&lt;/a&gt;" id="ghZ7vWJIJKBKPPi3PgTr-1">
          <mxCell style="text;html=1;" vertex="1" parent="1">
            <mxGeometry x="540" y="333" width="150" height="20" as="geometry"/>
          </mxCell>
        </UserObject>
        <mxCell id="ghZ7vWJIJKBKPPi3PgTr-2" value="&lt;a href=&quot;fileindex.md&quot;&gt;FileIndex&lt;/a&gt;" style="text;html=1;" vertex="1" parent="1">
          <mxGeometry x="240" y="69.55" width="60" height="20" as="geometry"/>
        </mxCell>
        <mxCell id="ghZ7vWJIJKBKPPi3PgTr-3" value="indexDB" style="shape=cylinder;whiteSpace=wrap;html=1;boundedLbl=1;backgroundOutline=1;fontSize=7;" vertex="1" parent="1">
          <mxGeometry x="250" y="103.55" width="40" height="40" as="geometry"/>
        </mxCell>
        <mxCell id="ghZ7vWJIJKBKPPi3PgTr-7" value="" style="shape=image;verticalLabelPosition=bottom;labelBackgroundColor=#ffffff;verticalAlign=top;aspect=fixed;imageAspect=0;image=https://lively-kernel.org/lively4/lively4-jens/src/babylonian-programming-editor/presentation/babylonian_lion.png;" vertex="1" parent="1">
          <mxGeometry x="543" y="293" width="50" height="40" as="geometry"/>
        </mxCell>
        <mxCell id="ghZ7vWJIJKBKPPi3PgTr-11" value="&lt;a href=&quot;lively.md&quot;&gt;Lively&lt;/a&gt;" style="text;html=1;" vertex="1" parent="1">
          <mxGeometry x="120" y="200" width="50" height="20" as="geometry"/>
        </mxCell>
        <mxCell id="ghZ7vWJIJKBKPPi3PgTr-12" value="&lt;a href=&quot;polymorphic-identifiers.md&quot;&gt;Polymorphic Identifiers&lt;/a&gt;" style="text;html=1;" vertex="1" parent="1">
          <mxGeometry x="200" y="230" width="140" height="20" as="geometry"/>
        </mxCell>
        <mxCell id="ghZ7vWJIJKBKPPi3PgTr-13" value="&lt;a href=&quot;server.md&quot;&gt;Serrver&lt;/a&gt;" style="text;html=1;" vertex="1" parent="1">
          <mxGeometry x="380" y="70" width="50" height="20" as="geometry"/>
        </mxCell>
        <mxCell id="ghZ7vWJIJKBKPPi3PgTr-14" value="&lt;font style=&quot;font-size: 8px&quot;&gt;git&lt;/font&gt;" style="shape=cylinder;whiteSpace=wrap;html=1;boundedLbl=1;backgroundOutline=1;" vertex="1" parent="1">
          <mxGeometry x="400" y="110.55" width="30" height="33" as="geometry"/>
        </mxCell>
        <mxCell id="ghZ7vWJIJKBKPPi3PgTr-15" value="node.js" style="text;html=1;strokeColor=none;fillColor=none;align=center;verticalAlign=middle;whiteSpace=wrap;rounded=0;" vertex="1" parent="1">
          <mxGeometry x="390" y="89.55000000000001" width="40" height="14.000000000000002" as="geometry"/>
        </mxCell>
        <mxCell id="ghZ7vWJIJKBKPPi3PgTr-19" value="&lt;a href=&quot;swx.md&quot;&gt;Service Worker&lt;/a&gt;" style="text;html=1;" vertex="1" parent="1">
          <mxGeometry x="350" y="180" width="100" height="20" as="geometry"/>
        </mxCell>
        <mxCell id="ghZ7vWJIJKBKPPi3PgTr-20" value="&lt;a href=&quot;projectional-editing.md&quot;&gt;Projectional Editing&lt;/a&gt;" style="text;html=1;" vertex="1" parent="1">
          <mxGeometry x="530" y="390" width="120" height="20" as="geometry"/>
        </mxCell>
        <mxCell id="ghZ7vWJIJKBKPPi3PgTr-21" value="&lt;a href=&quot;utils.md&quot;&gt;Utils&lt;/a&gt;" style="text;html=1;" vertex="1" parent="1">
          <mxGeometry x="120" y="440" width="40" height="20" as="geometry"/>
        </mxCell>
        <mxCell id="ghZ7vWJIJKBKPPi3PgTr-23" value="&lt;a href=&quot;visualizations.md&quot;&gt;Visualizations&lt;/a&gt;" style="text;html=1;" vertex="1" parent="1">
          <mxGeometry x="360" y="410" width="90" height="20" as="geometry"/>
        </mxCell>
        <mxCell id="ghZ7vWJIJKBKPPi3PgTr-28" value="" style="group" vertex="1" connectable="0" parent="1">
          <mxGeometry x="520" y="10" width="150" height="80" as="geometry"/>
        </mxCell>
        <mxCell id="ghZ7vWJIJKBKPPi3PgTr-24" value="GitHub&lt;span style=&quot;color: rgba(0 , 0 , 0 , 0) ; font-family: monospace ; font-size: 0px ; white-space: nowrap&quot;&gt;%3CmxGraphModel%3E%3Croot%3E%3CmxCell%20id%3D%220%22%2F%3E%3CmxCell%20id%3D%221%22%20parent%3D%220%22%2F%3E%3CmxCell%20id%3D%222%22%20value%3D%22%22%20style%3D%22verticalLabelPosition%3Dbottom%3Bhtml%3D1%3BverticalAlign%3Dtop%3Balign%3Dcenter%3BstrokeColor%3Dnone%3BfillColor%3D%2300BEF2%3Bshape%3Dmxgraph.azure.github_code%3BpointerEvents%3D1%3B%22%20vertex%3D%221%22%20parent%3D%221%22%3E%3CmxGeometry%20x%3D%22590%22%20y%3D%22177.5%22%20width%3D%2225%22%20height%3D%2225%22%20as%3D%22geometry%22%2F%3E%3C%2FmxCell%3E%3C%2Froot%3E%3C%2FmxGraphModel%3E&lt;/span&gt;" style="ellipse;shape=cloud;whiteSpace=wrap;html=1;" vertex="1" parent="ghZ7vWJIJKBKPPi3PgTr-28">
          <mxGeometry width="150" height="80" as="geometry"/>
        </mxCell>
        <mxCell id="ghZ7vWJIJKBKPPi3PgTr-26" value="" style="verticalLabelPosition=bottom;html=1;verticalAlign=top;align=center;strokeColor=none;fillColor=#00BEF2;shape=mxgraph.azure.github_code;pointerEvents=1;" vertex="1" parent="ghZ7vWJIJKBKPPi3PgTr-28">
          <mxGeometry x="98" y="29" width="25" height="25" as="geometry"/>
        </mxCell>
      </root>
    </mxGraphModel>
  </diagram>
</mxfile>
